<?xml version="1.0" encoding="UTF-8"?>
<svg xmlns="http://www.w3.org/2000/svg" version="1.1" width="100" height="100" viewBox="0 0 100 100"><rect x="0" y="0" width="100" height="100" fill="#ffffff"/><g transform="scale(4)"><g transform="translate(0,0)"><path fill-rule="evenodd" d="M8 0L8 1L9 1L9 2L8 2L8 5L9 5L9 4L11 4L11 5L10 5L10 10L9 10L9 8L8 8L8 9L7 9L7 8L6 8L6 9L4 9L4 8L0 8L0 10L1 10L1 9L2 9L2 11L3 11L3 9L4 9L4 12L3 12L3 15L2 15L2 14L1 14L1 15L0 15L0 16L1 16L1 15L2 15L2 17L3 17L3 16L5 16L5 17L8 17L8 18L9 18L9 20L10 20L10 18L11 18L11 17L10 17L10 16L5 16L5 15L4 15L4 12L5 12L5 14L6 14L6 15L8 15L8 13L9 13L9 14L10 14L10 13L11 13L11 16L12 16L12 17L13 17L13 16L12 16L12 14L13 14L13 15L14 15L14 18L13 18L13 21L15 21L15 20L16 20L16 21L17 21L17 22L14 22L14 23L10 23L10 22L11 22L11 21L10 21L10 22L9 22L9 21L8 21L8 25L12 25L12 24L15 24L15 25L16 25L16 24L15 24L15 23L17 23L17 22L19 22L19 23L20 23L20 24L21 24L21 25L22 25L22 24L23 24L23 25L25 25L25 24L23 24L23 23L24 23L24 22L25 22L25 21L23 21L23 20L22 20L22 19L21 19L21 18L22 18L22 17L24 17L24 20L25 20L25 17L24 17L24 14L22 14L22 13L21 13L21 12L24 12L24 11L22 11L22 10L23 10L23 8L20 8L20 9L18 9L18 8L16 8L16 7L17 7L17 6L16 6L16 7L15 7L15 3L17 3L17 2L15 2L15 0L14 0L14 2L13 2L13 0L12 0L12 1L11 1L11 0L10 0L10 1L9 1L9 0ZM11 2L11 4L12 4L12 3L13 3L13 5L12 5L12 6L11 6L11 8L12 8L12 6L13 6L13 8L14 8L14 11L11 11L11 13L12 13L12 12L13 12L13 14L14 14L14 15L15 15L15 18L16 18L16 16L17 16L17 15L18 15L18 14L19 14L19 16L20 16L20 11L19 11L19 10L18 10L18 9L17 9L17 10L18 10L18 11L16 11L16 10L15 10L15 9L16 9L16 8L15 8L15 7L14 7L14 6L13 6L13 5L14 5L14 3L15 3L15 2L14 2L14 3L13 3L13 2ZM16 4L16 5L17 5L17 4ZM8 6L8 7L9 7L9 6ZM24 8L24 10L25 10L25 8ZM6 9L6 10L7 10L7 11L5 11L5 12L8 12L8 10L7 10L7 9ZM11 9L11 10L12 10L12 9ZM20 9L20 10L21 10L21 9ZM15 11L15 12L14 12L14 14L16 14L16 13L17 13L17 14L18 14L18 13L19 13L19 11L18 11L18 12L16 12L16 11ZM1 12L1 13L2 13L2 12ZM6 13L6 14L7 14L7 13ZM21 14L21 15L22 15L22 16L21 16L21 17L22 17L22 16L23 16L23 15L22 15L22 14ZM9 17L9 18L10 18L10 17ZM17 17L17 20L20 20L20 17ZM18 18L18 19L19 19L19 18ZM11 19L11 20L12 20L12 19ZM19 21L19 22L21 22L21 23L23 23L23 21L22 21L22 22L21 22L21 21ZM9 23L9 24L10 24L10 23ZM0 0L0 7L7 7L7 0ZM1 1L1 6L6 6L6 1ZM2 2L2 5L5 5L5 2ZM18 0L18 7L25 7L25 0ZM19 1L19 6L24 6L24 1ZM20 2L20 5L23 5L23 2ZM0 18L0 25L7 25L7 18ZM1 19L1 24L6 24L6 19ZM2 20L2 23L5 23L5 20Z" fill="#000000"/></g></g></svg>
